        <svg xmlns="http://www.w3.org/2000/svg" viewBox="0 0 45.201 46.124" width="20" height="20" fill="#489391">
          <g>
            <path d="M17.208,39.356C16.858,36.345,14.291,34,11.188,34c-3.116,0-5.69,2.363-6.026,5.391l-0.005,0.063H1
            c-0.552,0-1,0.447-1,1c0,0.554,0.448,1,1,1h4.292c0,0,0-0.001,0-0.002c0.631,2.674,3.031,4.672,5.896,4.672
            c2.864,0,5.264-1.998,5.895-4.672c0,0.001,0,0.002,0,0.002h27.118c0.552,0,1-0.446,1-1c-0.002-0.553-0.45-1-1.002-1h-26.98
            L17.208,39.356z M11.188,44.124c-2.24,0-4.062-1.822-4.062-4.062S8.947,36,11.188,36c2.239,0,4.062,1.821,4.062,4.062
            S13.428,44.124,11.188,44.124z"/>
            <path d="M28.981,21.454H1c-0.552,0-1,0.447-1,1c0,0.554,0.448,1,1,1h28.118c0,0,0-0.001,0-0.002
            c0.631,2.674,3.031,4.672,5.896,4.672c2.863,0,5.265-1.998,5.896-4.672c0,0.001,0,0.002,0,0.002h3.292c0.552,0,1-0.446,1-1
            c-0.002-0.553-0.45-1-1.002-1h-3.156l-0.009-0.096C40.684,18.347,38.116,16,35.013,16c-3.115,0-5.689,2.362-6.025,5.389
            L28.981,21.454z M35.013,26.124c-2.239,0-4.062-1.822-4.062-4.062S32.772,18,35.013,18c2.239,0,4.062,1.821,4.062,4.062
            S37.252,26.124,35.013,26.124z"/>
            <path d="M22.212,5.39C21.877,2.363,19.302,0,16.188,0c-3.1,0-5.664,2.338-6.021,5.343l-0.011,0.111H1
            c-0.552,0-1,0.447-1,1c0,0.554,0.448,1,1,1h9.292c0,0,0-0.001,0-0.002c0.631,2.674,3.031,4.672,5.896,4.672
            c2.864,0,5.264-1.998,5.895-4.672c0,0.001,0,0.002,0,0.002h22.118c0.552,0,1-0.446,1-1c-0.002-0.553-0.45-1-1.002-1h-21.98
            L22.212,5.39z M16.188,10.124c-2.24,0-4.062-1.822-4.062-4.062S13.947,2,16.188,2c2.239,0,4.062,1.821,4.062,4.062
            S18.428,10.124,16.188,10.124z"/>
          </g>
        </svg>